<?xml version="1.0" encoding="UTF-8" standalone="no"?>
<svg
   xmlns:dc="http://purl.org/dc/elements/1.1/"
   xmlns:cc="http://creativecommons.org/ns#"
   xmlns:rdf="http://www.w3.org/1999/02/22-rdf-syntax-ns#"
   xmlns:svg="http://www.w3.org/2000/svg"
   xmlns="http://www.w3.org/2000/svg"
   xmlns:xlink="http://www.w3.org/1999/xlink"
   xmlns:sodipodi="http://sodipodi.sourceforge.net/DTD/sodipodi-0.dtd"
   xmlns:inkscape="http://www.inkscape.org/namespaces/inkscape"
   width="1100"
   height="360"
   viewBox="0 0 291.04166 95.250002"
   version="1.1"
   id="svg8"
   inkscape:export-filename="/home/gustawho/kde-store.png"
   inkscape:export-xdpi="52.360001"
   inkscape:export-ydpi="52.360001"
   inkscape:version="1.0 (4035a4fb49, 2020-05-01)"
   sodipodi:docname="made-with-kdevelop.svg">
  <defs
     id="defs2">
    <linearGradient
       gradientTransform="translate(58.788,33.941)"
       gradientUnits="userSpaceOnUse"
       x2="-14.394"
       x1="-44.389999"
       id="b">
      <stop
         id="stop1496"
         stop-color="#b0b8b8" />
      <stop
         id="stop1498"
         stop-color="#eff1f1"
         offset="1" />
    </linearGradient>
    <linearGradient
       gradientTransform="matrix(-0.96593,-0.25882,0.25882,-0.96593,40.971,53.39)"
       gradientUnits="userSpaceOnUse"
       x2="40"
       y2="37"
       x1="3.2420001"
       y1="15.778"
       id="f"
       xlink:href="#b" />
    <linearGradient
       gradientTransform="translate(58.788,33.941)"
       gradientUnits="userSpaceOnUse"
       x2="-14.394"
       x1="-44.389999"
       id="linearGradient2184">
      <stop
         id="stop2180"
         stop-color="#b0b8b8" />
      <stop
         id="stop2182"
         stop-color="#eff1f1"
         offset="1" />
    </linearGradient>
    <linearGradient
       gradientUnits="userSpaceOnUse"
       x2="40"
       y2="39"
       x1="24"
       y1="23"
       id="e">
      <stop
         id="stop1511"
         stop-color="#292c2f" />
      <stop
         id="stop1513"
         stop-opacity="0"
         offset="1" />
    </linearGradient>
    <linearGradient
       gradientTransform="translate(-53.39,-40.971)"
       gradientUnits="userSpaceOnUse"
       x2="34.764"
       y2="29.398001"
       x1="17.030001"
       y1="13.444"
       id="a">
      <stop
         id="stop1491"
         stop-color="#375a7d" />
      <stop
         id="stop1493"
         stop-color="#377d50"
         offset="1" />
    </linearGradient>
    <linearGradient
       gradientUnits="userSpaceOnUse"
       x2="-18.1"
       y2="-11.201"
       x1="-42.778999"
       y1="-25.452999"
       id="c">
      <stop
         id="stop1501"
         stop-color="#338173" />
      <stop
         id="stop1503"
         stop-color="#54d883"
         offset="1" />
    </linearGradient>
    <linearGradient
       gradientUnits="userSpaceOnUse"
       x2="27.049999"
       x1="13.864"
       id="d">
      <stop
         id="stop1506"
         stop-color="#7ceca4" />
      <stop
         id="stop1508"
         stop-color="#e5fbf7"
         offset="1" />
    </linearGradient>
    <linearGradient
       id="e-3"
       y1="23"
       x1="24"
       y2="39"
       x2="40"
       gradientUnits="userSpaceOnUse"
       gradientTransform="matrix(1.6130462,0,0,1.6130462,-12.980736,-11.507696)">
      <stop
         stop-color="#292c2f"
         id="stop1511-5" />
      <stop
         offset="1"
         stop-opacity="0"
         id="stop1513-6" />
    </linearGradient>
    <linearGradient
       gradientTransform="matrix(0.29765625,0,0,0.26458333,127.94472,-155.74593)"
       x2="0"
       gradientUnits="userSpaceOnUse"
       y2="503.79999"
       y1="543.79999"
       id="e-9"
       xlink:href="#d-1">
      <stop
         id="stop22"
         stop-color="#1d1e1e" />
      <stop
         id="stop24"
         stop-color="#44484c"
         offset="1" />
    </linearGradient>
    <linearGradient
       gradientTransform="matrix(-2.83522,0,0,2.83875,-12.344277,-1924.4722)"
       x2="0"
       gradientUnits="userSpaceOnUse"
       y2="1038.36"
       y1="1050.34"
       id="d-1">
      <stop
         id="stop17"
         stop-color="#c61423" />
      <stop
         id="stop19"
         stop-color="#dc2b41"
         offset="1" />
    </linearGradient>
    <linearGradient
       gradientTransform="translate(-435.01153,522.38358)"
       x2="0"
       gradientUnits="userSpaceOnUse"
       y2="503.79999"
       y1="520.79999"
       id="c-2">
      <stop
         id="stop12"
         stop-color="#197cf1" />
      <stop
         id="stop14"
         stop-color="#20bcfa"
         offset="1" />
    </linearGradient>
    <linearGradient
       gradientTransform="translate(-42.217454,1022.1396)"
       x2="22"
       gradientUnits="userSpaceOnUse"
       y2="18"
       x1="8"
       y1="4"
       id="b-7">
      <stop
         id="stop7"
         stop-color="#292c2f" />
      <stop
         id="stop9"
         stop-opacity="0"
         offset="1" />
    </linearGradient>
    <linearGradient
       gradientTransform="translate(-409.76153,514.72413)"
       x2="0"
       gradientUnits="userSpaceOnUse"
       y2="504.79999"
       y1="527.79999"
       id="a-0">
      <stop
         id="stop2"
         stop-color="#ffffff" />
      <stop
         id="stop4"
         stop-opacity="0"
         stop-color="#ffffff"
         offset="1" />
    </linearGradient>
    <linearGradient
       id="e-9-9"
       y1="543.79999"
       y2="503.79999"
       gradientUnits="userSpaceOnUse"
       x2="0"
       gradientTransform="matrix(0.29765625,0,0,0.26458333,155.18612,-129.81963)">
      <stop
         stop-color="#1d1e1e"
         id="stop22-3" />
      <stop
         offset="1"
         stop-color="#44484c"
         id="stop24-6" />
    </linearGradient>
    <linearGradient
       inkscape:collect="always"
       xlink:href="#e-9"
       id="linearGradient2439"
       x1="453.52301"
       y1="506.55072"
       x2="453.52301"
       y2="9.3382797"
       gradientUnits="userSpaceOnUse"
       gradientTransform="matrix(0.26458333,0,0,0.26458333,-74.530638,-163.62911)" />
    <linearGradient
       x2="-14.394"
       x1="-44.389999"
       gradientTransform="translate(58.788,33.941)"
       gradientUnits="userSpaceOnUse"
       id="linearGradient2211"
       xlink:href="#b-3"
       inkscape:collect="always" />
    <linearGradient
       id="b-3"
       x1="-44.389999"
       x2="-14.394"
       gradientUnits="userSpaceOnUse"
       gradientTransform="translate(58.788,33.941)">
      <stop
         stop-color="#b0b8b8"
         id="stop1496-6" />
      <stop
         offset="1"
         stop-color="#eff1f1"
         id="stop1498-7" />
    </linearGradient>
    <linearGradient
       id="linearGradient86"
       x1="-44.389999"
       x2="-14.394"
       gradientUnits="userSpaceOnUse"
       gradientTransform="translate(58.788,33.941)">
      <stop
         stop-color="#b0b8b8"
         id="stop82" />
      <stop
         offset="1"
         stop-color="#eff1f1"
         id="stop84" />
    </linearGradient>
    <linearGradient
       id="d-2"
       x1="13.864"
       x2="27.049999"
       gradientUnits="userSpaceOnUse">
      <stop
         stop-color="#7ceca4"
         id="stop1506-7" />
      <stop
         offset="1"
         stop-color="#e5fbf7"
         id="stop1508-0" />
    </linearGradient>
  </defs>
  <sodipodi:namedview
     fit-margin-bottom="0"
     fit-margin-right="0"
     fit-margin-left="0"
     fit-margin-top="0"
     id="base"
     pagecolor="#ffffff"
     bordercolor="#666666"
     borderopacity="1.0"
     inkscape:pageopacity="0.0"
     inkscape:pageshadow="2"
     inkscape:zoom="0.9"
     inkscape:cx="560.01822"
     inkscape:cy="-31.070161"
     inkscape:document-units="mm"
     inkscape:current-layer="layer1"
     inkscape:document-rotation="0"
     showgrid="false"
     units="px"
     inkscape:window-width="1920"
     inkscape:window-height="1022"
     inkscape:window-x="0"
     inkscape:window-y="0"
     inkscape:window-maximized="1" />
  <metadata
     id="metadata5">
    <rdf:RDF>
      <cc:Work
         rdf:about="">
        <dc:format>image/svg+xml</dc:format>
        <dc:type
           rdf:resource="http://purl.org/dc/dcmitype/StillImage" />
        <dc:title></dc:title>
      </cc:Work>
    </rdf:RDF>
  </metadata>
  <g
     transform="translate(13.229161,-18.520834)"
     inkscape:label="Layer 1"
     inkscape:groupmode="layer"
     id="layer1">
    <rect
       ry="14.781075"
       y="18.520834"
       x="-13.229161"
       height="95.25"
       width="291.04166"
       id="rect1063"
       style="fill:#31363b;fill-opacity:1;stroke:none;stroke-width:3.99436;stroke-miterlimit:4;stroke-dasharray:none;stroke-opacity:1" />
    <g
       transform="translate(6.7912053)"
       id="g959">
      <g
         transform="translate(92.449341,-1.1455508)"
         id="g90">
        <text
           transform="scale(0.99804283,1.001961)"
           id="text1039"
           y="53.025024"
           x="-13.832376"
           style="font-style:normal;font-weight:normal;font-size:10.5299px;line-height:0;font-family:sans-serif;letter-spacing:0px;word-spacing:0px;fill:#ffffff;fill-opacity:1;stroke:none;stroke-width:0.263251"
           xml:space="preserve"><tspan
             style="font-style:normal;font-variant:normal;font-weight:normal;font-stretch:normal;font-size:22.5778px;line-height:1.25;font-family:Inter;-inkscape-font-specification:Inter;fill:#ffffff;fill-opacity:1;stroke-width:0.263251"
             y="53.025024"
             x="-13.832376"
             sodipodi:role="line"
             id="tspan62">Made with</tspan></text>
        <text
           xml:space="preserve"
           style="font-style:normal;font-weight:normal;font-size:38.8056px;line-height:1.25;font-family:sans-serif;letter-spacing:0px;word-spacing:0px;fill:#000000;fill-opacity:1;stroke:none;stroke-width:0.264583"
           x="-16.6467"
           y="90.482811"
           id="text84"><tspan
             sodipodi:role="line"
             id="tspan82"
             x="-16.6467"
             y="90.482811"
             style="font-style:normal;font-variant:normal;font-weight:normal;font-stretch:normal;font-size:38.8056px;font-family:Inter;-inkscape-font-specification:Inter;fill:#ffffff;stroke-width:0.264583">KDevelop</tspan></text>
      </g>
      <g
         transform="matrix(1.6006212,0,0,1.6006369,-3.80205,27.730744)"
         id="g2166">
        <g
           id="g1539"
           color="#000000">
          <g
             id="g1523"
             stroke-width="3"
             stroke-linejoin="round">
            <circle
               style="fill:url(#linearGradient2211)"
               id="circle1519"
               transform="rotate(15)"
               stroke-linecap="round"
               r="15"
               cy="16.971001"
               cx="29.393999"
               fill="url(#b)" />
            <path
               style="fill:url(#f)"
               id="path1521"
               d="m 21.951885,43.88376 a 20,20 0 0 0 4.097059,0.0059 l 0.475,-3.1 a 17,17 0 0 0 3.687344,-0.985474 l 1.956,2.441 a 20,20 0 0 0 3.54897,-2.053782 l -1.135,-2.911 a 17,17 0 0 0 2.709819,-2.695171 l 2.893,1.127 a 20,20 0 0 0 2.050081,-3.553369 l -2.422,-1.941 a 17,17 0 0 0 0.608591,-1.818511 17,17 0 0 0 0.369366,-1.876546 l 3.094,-0.475 a 20,20 0 0 0 0.0059,-4.097059 l -3.1,-0.475 a 17,17 0 0 0 -0.985474,-3.687344 l 2.441,-1.956 a 20,20 0 0 0 -2.053782,-3.54897 l -2.911,1.135 a 17,17 0 0 0 -2.694886,-2.70962 L 35.713,7.816 A 20,20 0 0 0 32.15947,5.765905 L 30.22,8.188 A 17,17 0 0 0 28.399924,7.579261 17,17 0 0 0 26.523378,7.209895 L 26.05,4.116 A 20,20 0 0 0 21.952942,4.11009 L 21.476,7.21 A 17,17 0 0 0 17.788962,8.195745 L 15.833,5.755 a 20,20 0 0 0 -3.54897,2.053784 l 1.135,2.911 a 17,17 0 0 0 -2.709819,2.695171 L 7.816,12.287 a 20,20 0 0 0 -2.050081,3.553369 l 2.422,1.941 A 17,17 0 0 0 7.579328,19.59988 17,17 0 0 0 7.209962,21.476426 l -3.094,0.475 a 20,20 0 0 0 -0.00591,4.097058 l 3.1,0.475 a 17,17 0 0 0 0.985475,3.687344 l -2.441,1.956 a 20,20 0 0 0 2.053784,3.54897 l 2.911,-1.135 a 17,17 0 0 0 2.695171,2.709819 l -1.127,2.893 a 20,20 0 0 0 3.553369,2.050081 l 1.941,-2.422 a 17,17 0 0 0 1.818511,0.608591 17,17 0 0 0 1.876546,0.369366 z m -1.575352,-6.360798 a 14,14 0 0 1 -9.899495,-17.14643 14,14 0 0 1 17.14643,-9.899495 14,14 0 0 1 9.899495,17.14643 14,14 0 0 1 -17.14643,9.899495"
               fill="url(#f)" />
          </g>
          <path
             style="fill:url(#e)"
             id="path1525"
             shape-rendering="auto"
             fill="url(#e)"
             text-rendering="auto"
             color-interpolation="sRGB"
             d="M 33.19,14.807 14.803,33.194 25.539,43.928 c 0.169,-0.013 0.338,-0.02 0.506,-0.037 l 0.475,-3.102 c 1.262,-0.189 2.499,-0.519 3.688,-0.984 l 1.957,2.441 c 1.25,-0.561 2.439,-1.25 3.549,-2.055 l -1.135,-2.91 c 1,-0.794 1.91,-1.698 2.709,-2.695 l 2.893,1.127 c 0.803,-1.111 1.491,-2.301 2.051,-3.553 L 39.81,30.219 c 0.237,-0.594 0.439,-1.201 0.607,-1.818 0.158,-0.618 0.283,-1.245 0.371,-1.877 l 3.092,-0.475 c 0.018,-0.17 0.028,-0.34 0.041,-0.51 z"
             fill-rule="evenodd"
             color-rendering="auto"
             image-rendering="auto"
             color-interpolation-filters="linearRGB"
             opacity="0.2" />
          <g
             id="g1537"
             stroke-width="3"
             stroke-linejoin="round">
            <path
               id="path1527"
               d="m 41.883,15.12 -2.078,1.666 c 0.096,0.259 0.186,0.52 0.27,0.783 l 2.172,-1.74 C 42.131,15.59 42.01,15.354 41.884,15.12 M 6.126,15.126 c -0.124,0.235 -0.244,0.472 -0.359,0.711 l 2.154,1.727 C 8.004,17.3 8.093,17.038 8.189,16.779 Z M 4.034,23.487 C 4.005,24.341 4.03,25.195 4.11,26.046 l 3.102,0.475 c 0.152,0.987 0.392,1.959 0.715,2.904 l 0.27,-0.217 C 7.731,28.02 7.401,26.783 7.213,25.52 L 4.111,25.045 C 4.065,24.527 4.04,24.007 4.035,23.486 m 39.934,0.02 c -0.008,0.514 -0.036,1.027 -0.084,1.539 l -3.092,0.475 c -0.088,0.632 -0.212,1.259 -0.371,1.877 -0.168,0.617 -0.371,1.224 -0.607,1.818 l 0.268,0.215 c 0.124,-0.341 0.238,-0.685 0.34,-1.033 0.159,-0.618 0.283,-1.245 0.371,-1.877 l 3.092,-0.475 c 0.082,-0.844 0.11,-1.692 0.084,-2.539 m -2.092,8.361 c -0.484,0.992 -1.05,1.943 -1.691,2.842 l -2.893,-1.127 c -0.799,0.997 -1.708,1.902 -2.709,2.695 l 0.291,0.744 c 0.886,-0.729 1.696,-1.547 2.418,-2.439 l 2.893,1.127 c 0.804,-1.111 1.491,-2.301 2.051,-3.553 z M 6.12,31.873 5.757,32.164 c 0.561,1.25 1.25,2.439 2.055,3.549 l 2.91,-1.135 c 0.715,0.901 1.519,1.728 2.4,2.467 l 0.295,-0.758 C 12.42,35.488 11.515,34.579 10.722,33.578 l -2.91,1.135 C 7.171,33.815 6.605,32.865 6.121,31.873 m 24.09,6.928 c -1.188,0.465 -2.425,0.796 -3.688,0.984 l -0.475,3.102 c -1.363,0.138 -2.736,0.135 -4.098,-0.008 L 21.475,39.787 C 20.843,39.699 20.216,39.575 19.598,39.416 18.981,39.248 18.374,39.045 17.78,38.809 l -1.941,2.422 c -1.136,-0.513 -2.221,-1.132 -3.242,-1.848 l -0.311,0.797 c 1.111,0.804 2.301,1.491 3.553,2.051 l 1.941,-2.422 c 0.594,0.237 1.201,0.439 1.818,0.607 0.618,0.159 1.245,0.283 1.877,0.371 l 0.475,3.092 c 1.362,0.143 2.735,0.145 4.098,0.008 l 0.475,-3.102 c 1.262,-0.189 2.499,-0.519 3.688,-0.984 l 1.957,2.441 c 1.25,-0.561 2.439,-1.25 3.549,-2.055 l -0.311,-0.795 c -1.019,0.716 -2.104,1.335 -3.238,1.85 z"
               fill="#172525"
               opacity="0.2" />
            <g
               id="g1533"
               stroke-linecap="round">
              <circle
                 style="fill:url(#a)"
                 id="circle1529"
                 transform="matrix(-0.96593,-0.25882,0.25882,-0.96593,0,0)"
                 r="13"
                 cy="-16.971001"
                 cx="-29.393999"
                 fill="url(#a)" />
              <circle
                 style="fill:url(#c)"
                 id="circle1531"
                 transform="matrix(-0.96593,-0.25882,0.25882,-0.96593,0,0)"
                 r="12"
                 cy="-16.971001"
                 cx="-29.393999"
                 fill="url(#c)" />
            </g>
            <path
               style="fill:url(#d-2)"
               id="path1535"
               d="m 24.17,24.21 c 2.858,3.724 3.309,8.175 1.01,9.942 -2.302,1.766 -6.965,0.288 -9.823,-3.437 -2.858,-3.724 -2.828,-8.284 -0.526,-10.05 2.302,-1.766 6.484,-0.179 9.342,3.546"
               fill="url(#d)" />
          </g>
        </g>
        <path
           id="path1541"
           d="m 15,28 4,4 2,-6 z"
           fill-rule="evenodd"
           fill="#334545" />
      </g>
    </g>
  </g>
</svg>
